<?xml version="1.0" encoding="utf-8"?>
<!-- Generator: Adobe Illustrator 25.2.3, SVG Export Plug-In . SVG Version: 6.00 Build 0)  -->
<svg version="1.1" id="Layer_1" xmlns="http://www.w3.org/2000/svg" xmlns:xlink="http://www.w3.org/1999/xlink" x="0px" y="0px"
	 viewBox="0 0 3456 2592" style="enable-background:new 0 0 3456 2592;" xml:space="preserve">
<style type="text/css">
	.st0{fill:#222222;}
	.st1{font-family:'Georgia-Italic';}
	.st2{font-size:211px;}
	.st3{font-family:'Georgia-BoldItalic';}
	.st4{font-size:216px;}
</style>
<g>
	<g>
		<defs>
			<rect id="SVGID_1_" x="-158.51" y="-635.25" width="3749.88" height="3749.88"/>
		</defs>
		<clipPath id="SVGID_2_">
			<use xlink:href="#SVGID_1_"  style="overflow:visible;"/>
		</clipPath>
	</g>
	<path class="st0" d="M1716.4,246.87c-351.72,0-667.32,155.67-882.25,401.51l74.1,74.1C1103.76,495.72,1393,352.11,1716.4,352.11
		h0.07c323.35,0.03,612.59,143.59,808.1,370.33l74.02-74.06c-214.89-245.82-530.45-401.47-882.12-401.51H1716.4z M1716.4,547.42
		c-268.75,0-509.33,122.24-669.28,313.98l74.22,74.22c140.39-172.79,354.55-283.09,595.01-283.09h0.04
		c240.48,0,454.66,110.32,595.05,283.13l74.26-74.3C2225.73,669.63,1985.14,547.42,1716.4,547.42L1716.4,547.42z M1716.4,847.8
		c-185.84,0-350.8,89.78-455.15,227.76l74.63,74.67c84.19-119.28,222.82-197.16,380.48-197.16h0.04
		c157.62,0,296.31,77.83,380.55,197.08l70.94-70.93C2066.01,939.25,1903.18,847.8,1716.4,847.8L1716.4,847.8z M1716.4,1105.46
		l-330.45,116.49v274.09c-0.02,0-0.03,0-0.04,0c-9.13,3.59-15.13,12.41-15.11,22.22c0,7.48,3.52,14.51,9.49,19.01l-21.98,74.35
		h72.66l-21.97-74.35c5.97-4.5,9.48-11.54,9.49-19.01c-0.01-9.81-6.02-18.61-15.16-22.18V1325.5l313.07,110.41l401.55-141.59V1247
		L1716.4,1105.46z M1361.76,1230.45l-46.91,16.55v47.32l46.91,16.55V1230.45z M1952.17,1397.59l-235.77,83.14l-235.65-83.09
		c-0.29,4.02-0.43,8.04-0.43,12.07c0,130.4,105.71,236.1,236.1,236.1c130.39,0,236.1-105.71,236.1-236.1
		c-0.01-4.04-0.07-8.08-0.38-12.12H1952.17z M1952.17,1397.59"/>
	<path class="st0" d="M836.27,2008.38v43.39H655.35v-233.66h176.58v43.39H709.1v50.73h108.49v42.06H709.1v54.08H836.27z
		 M836.27,2008.38"/>
	<path class="st0" d="M887.27,1818.11h106.16c25.36,0,47.78,4.84,67.25,14.52c19.47,9.68,34.6,23.31,45.39,40.89
		c10.8,17.59,16.2,38.06,16.2,61.42c0,23.37-5.4,43.84-16.2,61.42c-10.79,17.58-25.92,31.2-45.39,40.89
		c-19.47,9.68-41.89,14.52-67.25,14.52H887.27V1818.11z M990.75,2007.38c23.36,0,42-6.51,55.91-19.53
		c13.91-13.02,20.86-30.66,20.86-52.91c0-22.25-6.95-39.88-20.86-52.91c-13.91-13.02-32.54-19.53-55.91-19.53h-49.41v144.88H990.75z
		 M990.75,2007.38"/>
	<path class="st0" d="M1274.74,2055.77c-33.38,0-59.35-9.23-77.94-27.7c-18.59-18.47-27.88-44.84-27.88-79.11v-130.84H1223v128.84
		c0,41.84,17.35,62.75,52.06,62.75c16.91,0,29.82-5.06,38.72-15.19c8.91-10.12,13.36-25.98,13.36-47.56v-128.84h53.41v130.84
		c0,34.27-9.29,60.64-27.88,79.11C1334.09,2046.54,1308.11,2055.77,1274.74,2055.77L1274.74,2055.77z M1274.74,2055.77"/>
	<path class="st0" d="M1553.72,2055.77c-23.81,0-45.34-5.17-64.59-15.52c-19.25-10.34-34.39-24.69-45.41-43.05
		c-11.01-18.36-16.52-39.12-16.52-62.26c0-23.15,5.5-43.9,16.52-62.25c11.02-18.36,26.16-32.72,45.41-43.06
		c19.25-10.34,40.89-15.52,64.92-15.52c20.25,0,38.55,3.56,54.91,10.69c16.35,7.12,30.1,17.35,41.23,30.7l-34.72,32.03
		c-15.81-18.24-35.39-27.36-58.75-27.36c-14.47,0-27.38,3.17-38.73,9.52c-11.34,6.34-20.19,15.18-26.53,26.53
		c-6.34,11.34-9.5,24.25-9.5,38.72c0,14.47,3.16,27.38,9.5,38.73c6.34,11.34,15.19,20.19,26.53,26.53
		c11.35,6.34,24.27,9.5,38.73,9.5c23.36,0,42.95-9.23,58.75-27.7l34.72,32.05c-11.14,13.57-24.94,23.92-41.41,31.05
		C1592.33,2052.21,1573.97,2055.77,1553.72,2055.77L1553.72,2055.77z M1553.72,2055.77"/>
	<path class="st0" d="M1843.71,2001.71h-108.48l-20.69,50.06h-55.41l104.14-233.66h53.41l104.48,233.66h-56.75L1843.71,2001.71z
		 M1826.69,1960.65l-37.05-89.45l-37.06,89.45H1826.69z M1826.69,1960.65"/>
	<path class="st0" d="M1990.18,1862.18h-74.78v-44.06h203.62v44.06h-74.77v189.59h-54.08V1862.18z M1990.18,1862.18"/>
	<rect x="2156" y="1818.11" class="st0" width="54.08" height="233.66"/>
	<path class="st0" d="M2386.58,2055.77c-24.25,0-46.12-5.23-65.59-15.69c-19.47-10.46-34.72-24.86-45.73-43.22
		c-11.01-18.36-16.52-39-16.52-61.92c0-22.91,5.5-43.55,16.52-61.91c11.02-18.36,26.27-32.77,45.73-43.23
		c19.48-10.46,41.34-15.69,65.59-15.69c24.26,0,46.07,5.23,65.42,15.69c19.36,10.46,34.61,24.87,45.73,43.23
		c11.12,18.36,16.69,38.99,16.69,61.91c0,22.92-5.56,43.56-16.69,61.92c-11.12,18.36-26.37,32.76-45.73,43.22
		C2432.65,2050.54,2410.84,2055.77,2386.58,2055.77L2386.58,2055.77z M2386.58,2009.71c13.8,0,26.27-3.16,37.39-9.5
		c11.13-6.34,19.86-15.19,26.2-26.53c6.34-11.35,9.51-24.27,9.51-38.73c0-14.47-3.17-27.38-9.51-38.72
		c-6.34-11.35-15.08-20.2-26.2-26.53c-11.12-6.34-23.59-9.52-37.39-9.52c-13.79,0-26.26,3.17-37.39,9.52
		c-11.12,6.34-19.86,15.18-26.2,26.53c-6.34,11.34-9.5,24.25-9.5,38.72c0,14.47,3.16,27.38,9.5,38.73
		c6.34,11.34,15.08,20.19,26.2,26.53C2360.32,2006.54,2372.79,2009.71,2386.58,2009.71L2386.58,2009.71z M2386.58,2009.71"/>
	<path class="st0" d="M2777.39,1818.11v233.66H2733l-116.5-141.86v141.86h-53.41v-233.66h44.73l116.16,141.86v-141.86H2777.39z
		 M2777.39,1818.11"/>
	<path class="st0" d="M1061.56,2140.34"/>
	<text transform="matrix(1 0 0 1 1574.1245 2212.6934)" class="st1 st2"> </text>
	<text transform="matrix(1 0 0 1 1092.5894 2342.9043)"><tspan x="0" y="0" class="st1 st2">    </tspan><tspan x="203.58" y="0" class="st3 st4">ONLINE</tspan></text>
</g>
</svg>
